HIERARCHY
ROOT Hips
{
    OFFSET 0.000000 0.000000 0.000000
    CHANNELS 6 Xposition Yposition Zposition Zrotation Xrotation Yrotation
    JOINT Spine
    {
        OFFSET -0.000000 8.349382 0.000000
        CHANNELS 3 Zrotation Xrotation Yrotation
        JOINT Spine1
        {
            OFFSET -0.000000 23.269058 0.000000
            CHANNELS 3 Zrotation Xrotation Yrotation
            JOINT Neck
            {
                OFFSET -0.000000 23.173496 2.106681
                CHANNELS 3 Zrotation Xrotation Yrotation
                JOINT Head
                {
                    OFFSET -0.000000 14.255042 -2.036435
                    CHANNELS 3 Zrotation Xrotation Yrotation
                    End Site
                    {
                        OFFSET -0.000000 25.455433 0.000000
                    }
                }
            }
            JOINT LeftShoulder
            {
                OFFSET 3.917082 21.531742 0.000256
                CHANNELS 3 Zrotation Xrotation Yrotation
                JOINT LeftArm
                {
                    OFFSET 10.728225 0.000000 0.000000
                    CHANNELS 3 Zrotation Xrotation Yrotation
                    JOINT LeftForeArm
                    {
                        OFFSET 30.046112 0.000000 0.000000
                        CHANNELS 3 Zrotation Xrotation Yrotation
                        JOINT LeftHand
                        {
                            OFFSET 29.023712 0.000000 0.000000
                            CHANNELS 3 Zrotation Xrotation Yrotation
                            End Site
                            {
                                OFFSET 15.273261 0.000000 0.000000
                            }
                        }
                    }
                }
            }
            JOINT RightShoulder
            {
                OFFSET -3.920664 21.531742 0.000256
                CHANNELS 3 Zrotation Xrotation Yrotation
                JOINT RightArm
                {
                    OFFSET -10.728225 0.000000 0.000000
                    CHANNELS 3 Zrotation Xrotation Yrotation
                    JOINT RightForeArm
                    {
                        OFFSET -30.046112 0.000000 0.000000
                        CHANNELS 3 Zrotation Xrotation Yrotation
                        JOINT RightHand
                        {
                            OFFSET -29.023712 0.000000 0.000000
                            CHANNELS 3 Zrotation Xrotation Yrotation
                            End Site
                            {
                                OFFSET -15.273261 0.000000 0.000000
                            }
                        }
                    }
                }
            }
        }
    }
    JOINT LeftUpLeg
    {
        OFFSET 10.182174 0.000000 0.000000
        CHANNELS 3 Zrotation Xrotation Yrotation
        JOINT LeftLeg
        {
            OFFSET -0.000000 -49.689274 0.000000
            CHANNELS 3 Zrotation Xrotation Yrotation
            JOINT LeftFoot
            {
                OFFSET -0.000000 -39.155319 0.000000
                CHANNELS 3 Zrotation Xrotation Yrotation
                JOINT LeftToeBase
                {
                    OFFSET -0.000000 -6.618412 15.273261
                    CHANNELS 3 Zrotation Xrotation Yrotation
                    End Site
                    {
                        OFFSET -0.000000 0.000000 4.072869
                    }
                }
            }
        }
    }
    JOINT RightUpLeg
    {
        OFFSET -10.182174 0.000000 0.000000
        CHANNELS 3 Zrotation Xrotation Yrotation
        JOINT RightLeg
        {
            OFFSET -0.000000 -49.689274 0.000000
            CHANNELS 3 Zrotation Xrotation Yrotation
            JOINT RightFoot
            {
                OFFSET -0.000000 -39.155319 0.000000
                CHANNELS 3 Zrotation Xrotation Yrotation
                JOINT RightToeBase
                {
                    OFFSET -0.000000 -6.618412 15.273261
                    CHANNELS 3 Zrotation Xrotation Yrotation
                    End Site
                    {
                        OFFSET -0.000000 0.000000 4.072869
                    }
                }
            }
        }
    }
}
MOTION
Frames:    4
Frame Time:    0.008333
90.808678    140.863937    41.636246    -0.816460    -1.592707    94.018456    -0.759601    0.257626    0.878828    0.655470    4.596149    0.850801    -1.330012    4.266132    2.731607    2.430563    -0.980144    3.357072    16.217548    -4.027151    -15.311920    -14.470747    -7.930654    9.000553    5.536929    -5.118413    -2.660692    -1.392010    -5.036408    3.813995    -19.155949    2.843809    -22.185762    26.194719    -4.969497    5.665716    -2.114443    -1.246669    0.414484    4.404641    -1.015146    5.817082    3.606219    4.722168    -3.050897    -4.085916    -6.295394    -7.055294    -0.482883    -3.568645    22.368488    0.000000    0.000000    0.000000    -1.770086    -2.196282    -4.772318    4.197008    10.137193    3.608881    4.474203    -8.829328    -8.960746    0.000000    0.000000    0.000000    
91.018120    141.034348    41.674286    -0.940665    -1.440114    93.791420    -0.688260    0.106336    0.916293    0.514117    4.293140    0.896417    -1.364107    4.282016    2.694154    2.606425    -0.769461    3.343595    16.298544    -4.017714    -15.085718    -14.361201    -7.942268    9.211922    5.275870    -5.207232    -2.340068    -1.092088    -5.137993    4.017980    -19.052658    2.875339    -22.101328    26.226835    -4.589788    5.714239    -2.522049    -1.543610    0.884091    3.966063    -1.314843    6.041777    3.375534    4.887038    -2.908139    -4.105329    -4.195539    -7.535590    -1.078932    -5.121749    22.916208    0.000000    0.000000    0.000000    -1.947600    -1.495514    -4.315832    4.318066    8.720752    3.701464    5.030989    -8.207943    -9.145381    0.000000    0.000000    0.000000    
91.114098    141.117126    41.701538    -1.008182    -1.385500    93.669403    -0.648198    -0.006243    0.933453    0.481751    4.220979    0.915712    -1.449350    4.147791    2.677914    2.788747    -0.498072    3.358661    16.330669    -4.018766    -14.912867    -14.311667    -7.961159    9.249529    5.157191    -5.228077    -2.119551    -1.224806    -5.176489    4.082862    -19.004616    2.873662    -22.069563    26.223541    -4.586686    5.767101    -2.641876    -1.586735    1.161818    3.730487    -1.362525    6.058731    3.311463    4.889451    -2.703854    -4.105329    -4.195539    -7.535590    -0.346392    -5.543583    23.251684    0.000000    0.000000    0.000000    -1.977798    -1.197264    -4.127707    4.310149    8.024253    3.177276    5.379468    -7.785015    -8.668289    0.000000    0.000000    0.000000    
91.152832    141.182770    41.720413    -1.166605    -1.333918    93.594254    -0.679353    -0.119492    0.957607    0.587652    4.106949    0.937236    -1.397263    4.023892    2.649318    2.666806    -0.294832    3.302134    16.294094    -4.176300    -14.843352    -14.205355    -7.968861    9.382723    4.921141    -5.114744    -1.930073    -1.220907    -5.075586    4.092834    -19.035166    2.912756    -22.132654    26.250788    -4.450879    5.896938    -2.757522    -1.713441    1.344371    3.302743    -1.501508    6.225592    3.252659    4.698659    -2.491848    -4.105329    -4.195539    -7.535590    -0.493758    -5.260033    23.141758    0.000000    0.000000    0.000000    -1.984238    -1.062073    -4.493567    4.148443    7.472795    3.228601    5.698466    -7.452159    -8.248069    0.000000    0.000000    0.000000    
